<mxfile host="app.diagrams.net" modified="2022-08-30T14:00:19.413Z" agent="5.0 (Windows)" etag="OapSxn1LEVdnW-W6tTCE" version="20.2.7" type="github">
  <diagram id="usiW2IWinGdeEfXn313k" name="Page-1">
    <mxGraphModel dx="2062" dy="1069" grid="1" gridSize="10" guides="1" tooltips="1" connect="1" arrows="1" fold="1" page="1" pageScale="1" pageWidth="827" pageHeight="1169" math="0" shadow="0">
      <root>
        <mxCell id="0" />
        <mxCell id="1" parent="0" />
        <mxCell id="XcwtB0oNc9kK7IabBisw-1" value="" style="rounded=0;whiteSpace=wrap;html=1;" vertex="1" parent="1">
          <mxGeometry x="150" y="110" width="570" height="660" as="geometry" />
        </mxCell>
        <mxCell id="XcwtB0oNc9kK7IabBisw-23" value="" style="rounded=0;orthogonalLoop=1;jettySize=auto;html=1;endArrow=none;endFill=0;" edge="1" parent="1" source="XcwtB0oNc9kK7IabBisw-3" target="XcwtB0oNc9kK7IabBisw-22">
          <mxGeometry relative="1" as="geometry" />
        </mxCell>
        <mxCell id="XcwtB0oNc9kK7IabBisw-31" value="" style="edgeStyle=none;rounded=0;orthogonalLoop=1;jettySize=auto;html=1;endArrow=none;endFill=0;" edge="1" parent="1" source="XcwtB0oNc9kK7IabBisw-3" target="XcwtB0oNc9kK7IabBisw-30">
          <mxGeometry relative="1" as="geometry" />
        </mxCell>
        <mxCell id="XcwtB0oNc9kK7IabBisw-50" value="" style="edgeStyle=none;rounded=0;orthogonalLoop=1;jettySize=auto;html=1;endArrow=none;endFill=0;" edge="1" parent="1" source="XcwtB0oNc9kK7IabBisw-3" target="XcwtB0oNc9kK7IabBisw-49">
          <mxGeometry relative="1" as="geometry" />
        </mxCell>
        <mxCell id="XcwtB0oNc9kK7IabBisw-52" value="" style="edgeStyle=none;rounded=0;orthogonalLoop=1;jettySize=auto;html=1;endArrow=none;endFill=0;" edge="1" parent="1" source="XcwtB0oNc9kK7IabBisw-3" target="XcwtB0oNc9kK7IabBisw-51">
          <mxGeometry relative="1" as="geometry" />
        </mxCell>
        <mxCell id="XcwtB0oNc9kK7IabBisw-54" value="" style="edgeStyle=none;rounded=0;orthogonalLoop=1;jettySize=auto;html=1;endArrow=none;endFill=0;" edge="1" parent="1" source="XcwtB0oNc9kK7IabBisw-3" target="XcwtB0oNc9kK7IabBisw-53">
          <mxGeometry relative="1" as="geometry" />
        </mxCell>
        <mxCell id="XcwtB0oNc9kK7IabBisw-71" value="" style="edgeStyle=none;rounded=0;orthogonalLoop=1;jettySize=auto;html=1;startArrow=none;startFill=0;endArrow=none;endFill=0;" edge="1" parent="1" source="XcwtB0oNc9kK7IabBisw-3" target="XcwtB0oNc9kK7IabBisw-70">
          <mxGeometry relative="1" as="geometry" />
        </mxCell>
        <mxCell id="XcwtB0oNc9kK7IabBisw-3" value="&lt;div&gt;User&lt;/div&gt;" style="shape=umlActor;verticalLabelPosition=bottom;verticalAlign=top;html=1;outlineConnect=0;" vertex="1" parent="1">
          <mxGeometry x="70" y="190" width="30" height="60" as="geometry" />
        </mxCell>
        <mxCell id="XcwtB0oNc9kK7IabBisw-6" value="API&#39;s FFT" style="shape=umlActor;verticalLabelPosition=bottom;verticalAlign=top;html=1;outlineConnect=0;" vertex="1" parent="1">
          <mxGeometry x="750" y="100" width="30" height="60" as="geometry" />
        </mxCell>
        <mxCell id="XcwtB0oNc9kK7IabBisw-22" value="&lt;div&gt;Log in&lt;/div&gt;&lt;div&gt;&lt;br&gt;&lt;/div&gt;" style="ellipse;whiteSpace=wrap;html=1;verticalAlign=top;gradientColor=none;" vertex="1" parent="1">
          <mxGeometry x="230" y="110" width="120" height="60" as="geometry" />
        </mxCell>
        <mxCell id="XcwtB0oNc9kK7IabBisw-30" value="&lt;div&gt;Cancel booking&lt;/div&gt;" style="ellipse;whiteSpace=wrap;html=1;verticalAlign=top;" vertex="1" parent="1">
          <mxGeometry x="190" y="640" width="120" height="60" as="geometry" />
        </mxCell>
        <mxCell id="XcwtB0oNc9kK7IabBisw-67" style="edgeStyle=none;rounded=0;orthogonalLoop=1;jettySize=auto;html=1;exitX=1;exitY=1;exitDx=0;exitDy=0;startArrow=none;startFill=0;endArrow=none;endFill=0;" edge="1" parent="1" source="XcwtB0oNc9kK7IabBisw-49" target="XcwtB0oNc9kK7IabBisw-56">
          <mxGeometry relative="1" as="geometry" />
        </mxCell>
        <mxCell id="XcwtB0oNc9kK7IabBisw-74" style="edgeStyle=none;rounded=0;orthogonalLoop=1;jettySize=auto;html=1;exitX=0;exitY=1;exitDx=0;exitDy=0;startArrow=none;startFill=0;endArrow=classicThin;endFill=1;dashed=1;" edge="1" parent="1" source="XcwtB0oNc9kK7IabBisw-49" target="XcwtB0oNc9kK7IabBisw-70">
          <mxGeometry relative="1" as="geometry" />
        </mxCell>
        <mxCell id="XcwtB0oNc9kK7IabBisw-76" value="&amp;lt;&amp;lt;includes&amp;gt;&amp;gt;" style="edgeLabel;html=1;align=center;verticalAlign=middle;resizable=0;points=[];" vertex="1" connectable="0" parent="XcwtB0oNc9kK7IabBisw-74">
          <mxGeometry x="0.1806" y="-3" relative="1" as="geometry">
            <mxPoint as="offset" />
          </mxGeometry>
        </mxCell>
        <mxCell id="XcwtB0oNc9kK7IabBisw-77" style="edgeStyle=none;rounded=0;orthogonalLoop=1;jettySize=auto;html=1;exitX=1;exitY=0;exitDx=0;exitDy=0;startArrow=none;startFill=0;endArrow=classicThin;endFill=1;" edge="1" parent="1" source="XcwtB0oNc9kK7IabBisw-49" target="XcwtB0oNc9kK7IabBisw-6">
          <mxGeometry relative="1" as="geometry" />
        </mxCell>
        <mxCell id="XcwtB0oNc9kK7IabBisw-49" value="Verify licence" style="ellipse;whiteSpace=wrap;html=1;verticalAlign=top;" vertex="1" parent="1">
          <mxGeometry x="480" y="290" width="120" height="60" as="geometry" />
        </mxCell>
        <mxCell id="XcwtB0oNc9kK7IabBisw-51" value="Select sport" style="ellipse;whiteSpace=wrap;html=1;verticalAlign=top;" vertex="1" parent="1">
          <mxGeometry x="280" y="200" width="120" height="60" as="geometry" />
        </mxCell>
        <mxCell id="XcwtB0oNc9kK7IabBisw-64" style="edgeStyle=none;rounded=0;orthogonalLoop=1;jettySize=auto;html=1;exitX=1;exitY=0.5;exitDx=0;exitDy=0;endArrow=none;endFill=0;startArrow=classicThin;startFill=1;dashed=1;" edge="1" parent="1" source="XcwtB0oNc9kK7IabBisw-53" target="XcwtB0oNc9kK7IabBisw-62">
          <mxGeometry relative="1" as="geometry">
            <Array as="points">
              <mxPoint x="410" y="520" />
              <mxPoint x="490" y="600" />
            </Array>
          </mxGeometry>
        </mxCell>
        <mxCell id="XcwtB0oNc9kK7IabBisw-65" value="&amp;lt;&amp;lt;extends&amp;gt;&amp;gt;" style="edgeLabel;html=1;align=center;verticalAlign=middle;resizable=0;points=[];" vertex="1" connectable="0" parent="XcwtB0oNc9kK7IabBisw-64">
          <mxGeometry x="-0.153" relative="1" as="geometry">
            <mxPoint as="offset" />
          </mxGeometry>
        </mxCell>
        <mxCell id="XcwtB0oNc9kK7IabBisw-53" value="Book for X people" style="ellipse;whiteSpace=wrap;html=1;verticalAlign=top;" vertex="1" parent="1">
          <mxGeometry x="250" y="440" width="120" height="60" as="geometry" />
        </mxCell>
        <mxCell id="XcwtB0oNc9kK7IabBisw-63" value="" style="edgeStyle=none;rounded=0;orthogonalLoop=1;jettySize=auto;html=1;endArrow=none;endFill=0;" edge="1" parent="1" source="XcwtB0oNc9kK7IabBisw-56" target="XcwtB0oNc9kK7IabBisw-62">
          <mxGeometry relative="1" as="geometry" />
        </mxCell>
        <mxCell id="XcwtB0oNc9kK7IabBisw-56" value="Guest(s)" style="shape=umlActor;verticalLabelPosition=bottom;verticalAlign=top;html=1;gradientColor=none;" vertex="1" parent="1">
          <mxGeometry x="760" y="610" width="30" height="60" as="geometry" />
        </mxCell>
        <mxCell id="XcwtB0oNc9kK7IabBisw-62" value="Recieve booking details" style="ellipse;whiteSpace=wrap;html=1;verticalAlign=top;gradientColor=none;" vertex="1" parent="1">
          <mxGeometry x="500" y="630" width="120" height="60" as="geometry" />
        </mxCell>
        <mxCell id="XcwtB0oNc9kK7IabBisw-70" value="Confirm booking" style="ellipse;whiteSpace=wrap;html=1;verticalAlign=top;" vertex="1" parent="1">
          <mxGeometry x="260" y="340" width="120" height="60" as="geometry" />
        </mxCell>
      </root>
    </mxGraphModel>
  </diagram>
</mxfile>
